STARTFONT 2.1
FONT -Adobe-ITC Bookman-Demi-I-Normal--19-140-100-100-P-112-ISO8859-1
SIZE 14 100 100
FONTBOUNDINGBOX 28 18 -4 -4

STARTPROPERTIES 26
_DEC_DEVICE_FONTNAMES "PS=Bookman-DemiItalic"
FONTNAME_REGISTRY ""
FAMILY_NAME "ITC Bookman"
FOUNDRY "Adobe"
WEIGHT_NAME "Demi"
SLANT "I"
SETWIDTH_NAME "Normal"
ADD_STYLE_NAME ""
PIXEL_SIZE 19
POINT_SIZE 140
RESOLUTION_X 100
RESOLUTION_Y 100
SPACING "P"
AVERAGE_WIDTH 112
CHARSET_REGISTRY "ISO8859"
CHARSET_ENCODING "1"
CHARSET_COLLECTIONS "ASCII ISO8859-1 ADOBE-STANDARD"
FULL_NAME "ITC Bookman Demi Italic"
COPYRIGHT "Copyright (c) 1991 Adobe Systems, Inc."
CAP_HEIGHT 13
X_HEIGHT 9
WEIGHT 10
QUAD_WIDTH 13
DEFAULT_CHAR 0
FONT_DESCENT 4
FONT_ASCENT 14
ENDPROPERTIES

CHARS 190

STARTCHAR space
ENCODING 32
SWIDTH 340 0
DWIDTH 6 0
BBX 1 1 0 0
BITMAP
00
ENDCHAR

STARTCHAR exclam
ENCODING 33
SWIDTH 320 0
DWIDTH 6 0
BBX 5 13 1 0
BITMAP
18
38
38
38
38
30
30
20
00
60
F0
F0
60
ENDCHAR

STARTCHAR quotedbl
ENCODING 34
SWIDTH 380 0
DWIDTH 7 0
BBX 5 5 1 8
BITMAP
D8
D8
D8
D8
D8
ENDCHAR

STARTCHAR numbersign
ENCODING 35
SWIDTH 600 0
DWIDTH 13 0
BBX 11 13 1 0
BITMAP
0CC0
0CC0
1980
7FE0
7FE0
1980
3300
FFC0
FFC0
3300
3300
6600
6600
ENDCHAR

STARTCHAR dollar
ENCODING 36
SWIDTH 680 0
DWIDTH 13 0
BBX 12 15 1 -2
BITMAP
0300
0300
1FC0
3FE0
7070
7C30
3F00
0FC0
03E0
C0E0
E1E0
7FC0
3F80
0C00
0C00
ENDCHAR

STARTCHAR percent
ENCODING 37
SWIDTH 880 0
DWIDTH 16 0
BBX 14 13 1 0
BITMAP
3810
7C30
CC70
CCE0
F9C0
7380
0700
0E38
1C7C
38CC
70CC
60F8
4070
ENDCHAR

STARTCHAR ampersand
ENCODING 38
SWIDTH 980 0
DWIDTH 18 0
BBX 16 13 1 0
BITMAP
0F80
1FC0
39D8
39DC
399C
3F0C
7F0C
E798
E3BB
E1F3
F1E7
7FFE
3E3C
ENDCHAR

STARTCHAR quoteright
ENCODING 39
SWIDTH 320 0
DWIDTH 6 0
BBX 5 5 1 8
BITMAP
30
78
78
30
E0
ENDCHAR

STARTCHAR parenleft
ENCODING 40
SWIDTH 260 0
DWIDTH 5 0
BBX 6 16 0 -3
BITMAP
1C
38
30
30
30
30
60
60
60
60
C0
C0
C0
C0
E0
70
ENDCHAR

STARTCHAR parenright
ENCODING 41
SWIDTH 260 0
DWIDTH 5 0
BBX 6 16 -1 -3
BITMAP
38
1C
0C
0C
0C
0C
18
18
18
18
30
30
30
30
70
E0
ENDCHAR

STARTCHAR asterisk
ENCODING 42
SWIDTH 460 0
DWIDTH 9 0
BBX 7 7 2 6
BITMAP
6C
6C
38
FE
38
6C
6C
ENDCHAR

STARTCHAR plus
ENCODING 43
SWIDTH 600 0
DWIDTH 11 0
BBX 9 9 1 0
BITMAP
1C00
1C00
1C00
FF80
FF80
1C00
1C00
1C00
1C00
ENDCHAR

STARTCHAR comma
ENCODING 44
SWIDTH 340 0
DWIDTH 6 0
BBX 4 6 1 -2
BITMAP
60
F0
F0
70
60
C0
ENDCHAR

STARTCHAR minus
ENCODING 45
SWIDTH 600 0
DWIDTH 11 0
BBX 9 2 1 4
BITMAP
FF80
FF80
ENDCHAR

STARTCHAR period
ENCODING 46
SWIDTH 340 0
DWIDTH 6 0
BBX 4 4 1 0
BITMAP
60
F0
F0
60
ENDCHAR

STARTCHAR slash
ENCODING 47
SWIDTH 360 0
DWIDTH 7 0
BBX 8 16 0 -3
BITMAP
03
03
07
06
0E
0C
0C
1C
18
38
30
30
70
60
E0
C0
ENDCHAR

STARTCHAR zero
ENCODING 48
SWIDTH 680 0
DWIDTH 13 0
BBX 11 13 1 0
BITMAP
0F80
3FC0
79E0
70E0
F0E0
E0E0
E0E0
E0E0
E1E0
E1C0
F3C0
7F80
3E00
ENDCHAR

STARTCHAR one
ENCODING 49
SWIDTH 680 0
DWIDTH 13 0
BBX 7 13 3 0
BITMAP
1E
FE
FE
1C
1C
1C
1C
38
38
38
38
FC
FC
ENDCHAR

STARTCHAR two
ENCODING 50
SWIDTH 680 0
DWIDTH 13 0
BBX 11 13 1 0
BITMAP
0FC0
3FE0
71E0
70E0
61E0
03C0
0780
0F00
1E00
3C20
7860
FFC0
FFC0
ENDCHAR

STARTCHAR three
ENCODING 51
SWIDTH 680 0
DWIDTH 13 0
BBX 11 13 1 0
BITMAP
0FC0
1FE0
38E0
30E0
01C0
0780
0780
01C0
61C0
E1C0
E3C0
7F80
3F00
ENDCHAR

STARTCHAR four
ENCODING 52
SWIDTH 680 0
DWIDTH 13 0
BBX 11 13 1 0
BITMAP
03C0
07C0
0DC0
19C0
3380
6380
C380
FFE0
FFE0
0700
0700
1F80
1F80
ENDCHAR

STARTCHAR five
ENCODING 53
SWIDTH 680 0
DWIDTH 13 0
BBX 11 13 1 0
BITMAP
1FE0
1FC0
3800
3000
7F80
7FC0
01C0
01C0
61C0
E3C0
E780
7F80
3E00
ENDCHAR

STARTCHAR six
ENCODING 54
SWIDTH 680 0
DWIDTH 13 0
BBX 10 13 2 0
BITMAP
0F80
1FC0
38C0
7000
7780
FFC0
F1C0
E1C0
E1C0
E1C0
E380
7F80
3E00
ENDCHAR

STARTCHAR seven
ENCODING 55
SWIDTH 680 0
DWIDTH 13 0
BBX 11 13 2 0
BITMAP
FFE0
FFE0
C1C0
C380
0380
0700
0700
0E00
0E00
1C00
1C00
3C00
3C00
ENDCHAR

STARTCHAR eight
ENCODING 56
SWIDTH 680 0
DWIDTH 13 0
BBX 10 13 2 0
BITMAP
1F80
3FC0
7040
78C0
7F80
3F00
7F80
E7C0
C3C0
C1C0
E1C0
7F80
3F00
ENDCHAR

STARTCHAR nine
ENCODING 57
SWIDTH 680 0
DWIDTH 13 0
BBX 10 13 2 0
BITMAP
1F00
7F80
71C0
E1C0
E1C0
E3C0
FFC0
7DC0
01C0
0380
C780
FF00
7C00
ENDCHAR

STARTCHAR colon
ENCODING 58
SWIDTH 340 0
DWIDTH 6 0
BBX 6 9 1 0
BITMAP
18
3C
3C
18
00
60
F0
F0
60
ENDCHAR

STARTCHAR semicolon
ENCODING 59
SWIDTH 340 0
DWIDTH 6 0
BBX 6 11 1 -2
BITMAP
18
3C
3C
18
00
60
F0
F0
70
60
C0
ENDCHAR

STARTCHAR less
ENCODING 60
SWIDTH 620 0
DWIDTH 11 0
BBX 9 9 1 0
BITMAP
0780
0F00
3C00
7000
E000
7000
3C00
0F00
0780
ENDCHAR

STARTCHAR equal
ENCODING 61
SWIDTH 600 0
DWIDTH 11 0
BBX 9 6 1 2
BITMAP
FF80
FF80
0000
0000
FF80
FF80
ENDCHAR

STARTCHAR greater
ENCODING 62
SWIDTH 620 0
DWIDTH 11 0
BBX 9 9 1 0
BITMAP
F000
7800
1E00
0700
0380
0700
1E00
7800
F000
ENDCHAR

STARTCHAR question
ENCODING 63
SWIDTH 620 0
DWIDTH 11 0
BBX 9 13 2 0
BITMAP
1E00
7700
E380
E380
C380
0700
0E00
1800
0000
3000
7800
7800
3000
ENDCHAR

STARTCHAR at
ENCODING 64
SWIDTH 780 0
DWIDTH 15 0
BBX 13 12 1 0
BITMAP
0F80
3FE0
7070
E7B8
CCD8
D8D8
D998
DBB0
EEE0
7008
3FF0
0FE0
ENDCHAR

STARTCHAR A
ENCODING 65
SWIDTH 720 0
DWIDTH 13 0
BBX 13 13 0 0
BITMAP
0380
0380
07C0
0DC0
0DC0
18C0
1FE0
3FE0
30E0
7070
7070
F9F8
F9F8
ENDCHAR

STARTCHAR B
ENCODING 66
SWIDTH 720 0
DWIDTH 13 0
BBX 13 13 0 0
BITMAP
1FF0
1FF8
0E38
0E38
1C78
1FF0
1FF0
1C38
3838
3838
3878
FFF0
FFC0
ENDCHAR

STARTCHAR C
ENCODING 67
SWIDTH 700 0
DWIDTH 13 0
BBX 12 13 1 0
BITMAP
0FD0
3FF0
7870
7030
F030
E000
E000
E000
E000
E060
70E0
7FC0
1F80
ENDCHAR

STARTCHAR D
ENCODING 68
SWIDTH 760 0
DWIDTH 14 0
BBX 14 13 0 0
BITMAP
1FE0
1FF8
0E38
0E1C
1C1C
1C1C
1C1C
1C1C
3838
3838
3878
FFF0
FFC0
ENDCHAR

STARTCHAR E
ENCODING 69
SWIDTH 720 0
DWIDTH 13 0
BBX 13 13 0 0
BITMAP
1FF0
1FF8
0E38
0E18
1CC0
1FC0
1F80
1D80
3818
3838
3870
FFF0
FFE0
ENDCHAR

STARTCHAR F
ENCODING 70
SWIDTH 660 0
DWIDTH 12 0
BBX 13 13 0 0
BITMAP
1FF0
1FF8
0E38
0E18
1CC0
1FC0
1F80
3980
3800
3800
3800
FC00
FC00
ENDCHAR

STARTCHAR G
ENCODING 71
SWIDTH 760 0
DWIDTH 14 0
BBX 13 13 1 0
BITMAP
0FD0
3FF0
7870
7030
F030
E000
E000
E1F8
E1F8
E070
70E0
7FE0
1F60
ENDCHAR

STARTCHAR H
ENCODING 72
SWIDTH 800 0
DWIDTH 15 0
BBX 16 13 0 0
BITMAP
1F9F
1F9F
0E0E
1C1C
1C1C
1FFC
1FF8
3838
3838
3838
3878
FCFC
FCFC
ENDCHAR

STARTCHAR I
ENCODING 73
SWIDTH 380 0
DWIDTH 7 0
BBX 8 13 0 0
BITMAP
1F
1F
0E
1C
1C
1C
1C
38
38
38
38
FC
FC
ENDCHAR

STARTCHAR J
ENCODING 74
SWIDTH 620 0
DWIDTH 12 0
BBX 12 13 1 0
BITMAP
01F0
01F0
00E0
01C0
01C0
01C0
01C0
63C0
F380
F380
E780
7F00
3E00
ENDCHAR

STARTCHAR K
ENCODING 75
SWIDTH 780 0
DWIDTH 15 0
BBX 15 13 0 0
BITMAP
1F3E
1F3C
0E70
1CE0
1DC0
1FC0
1FC0
1EE0
38F0
3870
3878
FCFE
FCFE
ENDCHAR

STARTCHAR L
ENCODING 76
SWIDTH 640 0
DWIDTH 12 0
BBX 12 13 0 0
BITMAP
1F80
1F80
0E00
0E00
1C00
1C00
1C00
1C00
3830
3870
38E0
FFE0
FFC0
ENDCHAR

STARTCHAR M
ENCODING 77
SWIDTH 860 0
DWIDTH 16 0
BBX 17 13 0 0
BITMAP
3E0F80
3E1F80
1E1E00
1E3E00
1E7E00
366E00
37CE00
37CC00
379C00
679C00
639C00
F33E00
F33E00
ENDCHAR

STARTCHAR N
ENCODING 78
SWIDTH 740 0
DWIDTH 14 0
BBX 15 13 0 0
BITMAP
3E3E
3E3E
1E1C
1F18
1F18
1B98
1BB8
39F0
31F0
30F0
30F0
F870
F870
ENDCHAR

STARTCHAR O
ENCODING 79
SWIDTH 760 0
DWIDTH 14 0
BBX 13 13 1 0
BITMAP
0FC0
3FF0
7870
7038
F038
E038
E038
E038
E078
E070
70F0
7FE0
1F80
ENDCHAR

STARTCHAR P
ENCODING 80
SWIDTH 640 0
DWIDTH 12 0
BBX 13 13 0 0
BITMAP
1FF0
1FF8
0E38
1C38
1C70
1FE0
1FC0
1C00
3800
3800
3800
FC00
FC00
ENDCHAR

STARTCHAR Q
ENCODING 81
SWIDTH 760 0
DWIDTH 14 0
BBX 13 17 1 -4
BITMAP
0FC0
3FF0
7870
7038
F038
E038
E038
E038
E378
E7F0
7CF0
7FE0
1FE0
C060
E0E0
FFC0
3F00
ENDCHAR

STARTCHAR R
ENCODING 82
SWIDTH 740 0
DWIDTH 14 0
BBX 13 13 0 0
BITMAP
1FF0
1FF8
0E38
1C38
1C70
1FE0
1FC0
1DE0
38E0
38F0
3870
FC78
FC78
ENDCHAR

STARTCHAR S
ENCODING 83
SWIDTH 700 0
DWIDTH 13 0
BBX 12 13 1 0
BITMAP
1FD0
3FF0
7070
7830
7E10
3F80
0FC0
07E0
81F0
C0F0
E1E0
7FE0
6F80
ENDCHAR

STARTCHAR T
ENCODING 84
SWIDTH 700 0
DWIDTH 13 0
BBX 13 13 1 0
BITMAP
7FF0
FFF0
E738
C718
0F00
0E00
0E00
0E00
1E00
1C00
1C00
7E00
7E00
ENDCHAR

STARTCHAR U
ENCODING 85
SWIDTH 740 0
DWIDTH 14 0
BBX 13 13 2 0
BITMAP
7E78
7E78
3830
3830
7070
7060
7060
E0E0
E0C0
E0C0
E1C0
7F80
3F00
ENDCHAR

STARTCHAR V
ENCODING 86
SWIDTH 660 0
DWIDTH 12 0
BBX 13 13 1 0
BITMAP
FCF8
FCF8
7870
3860
38C0
3CC0
1D80
1D80
1F00
1F00
0E00
0E00
0C00
ENDCHAR

STARTCHAR W
ENCODING 87
SWIDTH 1000 0
DWIDTH 19 0
BBX 18 13 2 0
BITMAP
FDF7C0
FDF7C0
78E380
38E300
38E700
39E600
39E600
3B6C00
3B6C00
1E7800
1E7800
1C7000
1C7000
ENDCHAR

STARTCHAR X
ENCODING 88
SWIDTH 740 0
DWIDTH 14 0
BBX 15 13 0 0
BITMAP
7E7E
7E7E
3C3C
1C38
0E60
07C0
0780
07C0
0DE0
18F0
7078
F8FC
F8FC
ENDCHAR

STARTCHAR Y
ENCODING 89
SWIDTH 660 0
DWIDTH 12 0
BBX 13 13 1 0
BITMAP
FCF8
FCF8
7870
3860
3CC0
1D80
1F00
0E00
0E00
0E00
0E00
3F00
3F00
ENDCHAR

STARTCHAR Z
ENCODING 90
SWIDTH 680 0
DWIDTH 13 0
BBX 12 13 1 0
BITMAP
7FF0
7FF0
61E0
43C0
0780
0F00
0E00
1C00
3C00
7860
F0E0
FFE0
FFC0
ENDCHAR

STARTCHAR bracketleft
ENCODING 91
SWIDTH 260 0
DWIDTH 5 0
BBX 6 16 0 -3
BITMAP
3C
38
30
30
30
60
60
60
60
60
C0
C0
C0
C0
E0
F0
ENDCHAR

STARTCHAR backslash
ENCODING 92
SWIDTH 580 0
DWIDTH 11 0
BBX 8 14 2 -1
BITMAP
C0
C0
60
60
30
30
18
18
0C
0C
06
06
03
03
ENDCHAR

STARTCHAR bracketright
ENCODING 93
SWIDTH 260 0
DWIDTH 5 0
BBX 6 16 -1 -3
BITMAP
3C
1C
0C
0C
0C
18
18
18
18
18
30
30
30
30
70
F0
ENDCHAR

STARTCHAR asciicircum
ENCODING 94
SWIDTH 620 0
DWIDTH 11 0
BBX 9 8 1 5
BITMAP
1C00
1C00
3600
3600
6300
6300
C180
C180
ENDCHAR

STARTCHAR underscore
ENCODING 95
SWIDTH 500 0
DWIDTH 9 0
BBX 9 2 0 -3
BITMAP
FF80
FF80
ENDCHAR

STARTCHAR quoteleft
ENCODING 96
SWIDTH 320 0
DWIDTH 6 0
BBX 5 5 2 8
BITMAP
38
60
F0
F0
60
ENDCHAR

STARTCHAR a
ENCODING 97
SWIDTH 680 0
DWIDTH 13 0
BBX 12 9 1 0
BITMAP
1F60
3FE0
71E0
E1C0
E1C0
E1C0
E3C0
7FF0
3EE0
ENDCHAR

STARTCHAR b
ENCODING 98
SWIDTH 600 0
DWIDTH 12 0
BBX 11 13 1 0
BITMAP
1C00
7C00
3800
3800
3B80
3FC0
70E0
70E0
70E0
70E0
F1C0
FF80
EF00
ENDCHAR

STARTCHAR c
ENCODING 99
SWIDTH 560 0
DWIDTH 10 0
BBX 9 9 1 0
BITMAP
1F00
3F80
7180
E000
E000
E180
E380
7F00
3E00
ENDCHAR

STARTCHAR d
ENCODING 100
SWIDTH 680 0
DWIDTH 13 0
BBX 12 13 1 0
BITMAP
0070
01F0
00E0
00E0
1EE0
3FE0
71C0
E1C0
E1C0
E1C0
E3C0
7FF0
3EE0
ENDCHAR

STARTCHAR e
ENCODING 101
SWIDTH 560 0
DWIDTH 10 0
BBX 9 9 1 0
BITMAP
1F00
3F80
7380
E780
FE00
E000
E180
7F80
3E00
ENDCHAR

STARTCHAR f
ENCODING 102
SWIDTH 420 0
DWIDTH 8 0
BBX 14 17 -4 -4
BITMAP
0078
00FC
01C0
01C0
07F0
07F0
01C0
01C0
01C0
0380
0380
0380
0380
0700
E700
FE00
7C00
ENDCHAR

STARTCHAR g
ENCODING 103
SWIDTH 620 0
DWIDTH 11 0
BBX 11 13 0 -4
BITMAP
0F60
1FE0
38E0
70E0
71E0
71C0
71C0
3FC0
1FC0
01C0
E380
FF80
7F00
ENDCHAR

STARTCHAR h
ENCODING 104
SWIDTH 700 0
DWIDTH 13 0
BBX 12 13 1 0
BITMAP
1C00
7C00
3800
3800
3BC0
3FE0
70E0
70E0
71E0
71C0
E1C0
E1F0
E0E0
ENDCHAR

STARTCHAR i
ENCODING 105
SWIDTH 380 0
DWIDTH 7 0
BBX 6 12 1 0
BITMAP
1C
1C
00
38
F8
38
70
70
70
E0
FC
78
ENDCHAR

STARTCHAR j
ENCODING 106
SWIDTH 320 0
DWIDTH 6 0
BBX 10 16 -3 -4
BITMAP
01C0
01C0
0000
0380
0F80
0380
0700
0700
0700
0700
0700
0700
0E00
CE00
FE00
7800
ENDCHAR

STARTCHAR k
ENCODING 107
SWIDTH 700 0
DWIDTH 13 0
BBX 12 13 1 0
BITMAP
1C00
7C00
3800
3800
38E0
39E0
7300
7600
7E00
7700
E380
E3F0
E1E0
ENDCHAR

STARTCHAR l
ENCODING 108
SWIDTH 380 0
DWIDTH 7 0
BBX 6 13 1 0
BITMAP
1C
7C
38
38
38
38
70
70
70
70
E0
FC
78
ENDCHAR

STARTCHAR m
ENCODING 109
SWIDTH 960 0
DWIDTH 18 0
BBX 17 9 1 0
BITMAP
3BDE00
FFFF00
39C700
71C700
71CF00
738E00
E38E00
E38F80
E38700
ENDCHAR

STARTCHAR n
ENCODING 110
SWIDTH 680 0
DWIDTH 13 0
BBX 12 9 1 0
BITMAP
3BC0
FFE0
38E0
70E0
71E0
71C0
E1C0
E1F0
E0E0
ENDCHAR

STARTCHAR o
ENCODING 111
SWIDTH 600 0
DWIDTH 11 0
BBX 10 9 1 0
BITMAP
1F00
3F80
71C0
E1C0
E1C0
E1C0
E380
7F00
3E00
ENDCHAR

STARTCHAR p
ENCODING 112
SWIDTH 660 0
DWIDTH 12 0
BBX 13 13 -1 -4
BITMAP
0EE0
3FF0
0E38
1C38
1C38
1C38
3C70
3FE0
3BC0
7000
7000
F800
F800
ENDCHAR

STARTCHAR q
ENCODING 113
SWIDTH 620 0
DWIDTH 12 0
BBX 11 13 1 -4
BITMAP
1F60
3FE0
71E0
E1C0
E1C0
E1C0
E3C0
7FC0
3B80
0380
0380
07C0
07C0
ENDCHAR

STARTCHAR r
ENCODING 114
SWIDTH 500 0
DWIDTH 9 0
BBX 9 9 1 0
BITMAP
3B00
FF80
3980
7000
7000
7000
E000
E000
E000
ENDCHAR

STARTCHAR s
ENCODING 115
SWIDTH 540 0
DWIDTH 10 0
BBX 11 9 0 0
BITMAP
1FC0
38E0
3C60
3F00
1F80
07C0
C1C0
F780
7F00
ENDCHAR

STARTCHAR t
ENCODING 116
SWIDTH 440 0
DWIDTH 8 0
BBX 8 12 1 0
BITMAP
0C
1C
1C
7F
7F
38
70
70
70
E0
FC
78
ENDCHAR

STARTCHAR u
ENCODING 117
SWIDTH 680 0
DWIDTH 13 0
BBX 12 9 1 0
BITMAP
38E0
F8E0
38E0
71C0
71C0
71C0
E780
FFF0
79E0
ENDCHAR

STARTCHAR v
ENCODING 118
SWIDTH 540 0
DWIDTH 10 0
BBX 10 9 0 0
BITMAP
3980
F9C0
39C0
70C0
7180
7180
7300
7E00
3C00
ENDCHAR

STARTCHAR w
ENCODING 119
SWIDTH 860 0
DWIDTH 16 0
BBX 15 9 1 0
BITMAP
39CC
F9CE
39CE
71C6
738C
738C
73D8
7FF0
3CE0
ENDCHAR

STARTCHAR x
ENCODING 120
SWIDTH 620 0
DWIDTH 11 0
BBX 11 9 0 0
BITMAP
38E0
7DE0
1F00
0E00
1E00
1F00
3380
F3E0
E1C0
ENDCHAR

STARTCHAR y
ENCODING 121
SWIDTH 600 0
DWIDTH 11 0
BBX 11 13 1 -4
BITMAP
38E0
F8E0
38E0
71C0
71C0
71C0
E780
FF80
7B80
0380
E700
FF00
7E00
ENDCHAR

STARTCHAR z
ENCODING 122
SWIDTH 560 0
DWIDTH 11 0
BBX 10 9 1 0
BITMAP
3FC0
73C0
6780
0F00
1E00
3C00
78C0
F9C0
FF80
ENDCHAR

STARTCHAR braceleft
ENCODING 123
SWIDTH 300 0
DWIDTH 6 0
BBX 7 16 0 -3
BITMAP
0E
1C
18
18
18
38
70
E0
70
30
30
30
30
30
38
1C
ENDCHAR

STARTCHAR bar
ENCODING 124
SWIDTH 620 0
DWIDTH 12 0
BBX 2 13 5 0
BITMAP
C0
C0
C0
C0
C0
C0
C0
C0
C0
C0
C0
C0
C0
ENDCHAR

STARTCHAR braceright
ENCODING 125
SWIDTH 300 0
DWIDTH 6 0
BBX 7 16 0 -3
BITMAP
70
38
18
18
18
18
1C
0E
1C
38
30
30
30
30
70
E0
ENDCHAR

STARTCHAR asciitilde
ENCODING 126
SWIDTH 620 0
DWIDTH 11 0
BBX 9 4 1 3
BITMAP
7080
FD80
DF80
8700
ENDCHAR

STARTCHAR exclamdown
ENCODING 161
SWIDTH 320 0
DWIDTH 6 0
BBX 5 13 1 -4
BITMAP
30
78
78
30
00
20
60
60
E0
E0
E0
E0
C0
ENDCHAR

STARTCHAR cent
ENCODING 162
SWIDTH 680 0
DWIDTH 13 0
BBX 9 13 2 0
BITMAP
0600
0600
1E00
3F00
7380
E380
E000
E000
E300
7F00
3E00
1800
1800
ENDCHAR

STARTCHAR sterling
ENCODING 163
SWIDTH 680 0
DWIDTH 13 0
BBX 13 13 0 0
BITMAP
03E0
07F0
0F38
0E38
0E30
0E00
3F00
3F00
1C60
7C70
CE30
DFE0
F3C0
ENDCHAR

STARTCHAR currency
ENCODING 164
SWIDTH 680 0
DWIDTH 13 0
BBX 10 10 2 1
BITMAP
C0C0
DEC0
3F00
7380
6180
6180
7380
3F00
DEC0
C0C0
ENDCHAR

STARTCHAR yen
ENCODING 165
SWIDTH 680 0
DWIDTH 13 0
BBX 12 13 1 0
BITMAP
FDF0
78E0
39C0
3B00
FFC0
FFC0
1E00
FFC0
FFC0
1C00
1C00
7E00
7E00
ENDCHAR

STARTCHAR brokenbar
ENCODING 166
SWIDTH 620 0
DWIDTH 12 0
BBX 2 13 5 0
BITMAP
C0
C0
C0
C0
C0
00
00
00
C0
C0
C0
C0
C0
ENDCHAR

STARTCHAR section
ENCODING 167
SWIDTH 620 0
DWIDTH 12 0
BBX 11 15 0 -2
BITMAP
0FC0
1FE0
3860
3C20
1F00
3FC0
63E0
70E0
7C60
3FC0
0F80
C3C0
E1C0
7F80
3E00
ENDCHAR

STARTCHAR dieresis
ENCODING 168
SWIDTH 520 0
DWIDTH 10 0
BBX 7 3 3 10
BITMAP
66
EE
CC
ENDCHAR

STARTCHAR copyright
ENCODING 169
SWIDTH 780 0
DWIDTH 15 0
BBX 13 12 1 0
BITMAP
0F80
3FE0
7070
E738
CD98
D898
D818
CD98
E738
7070
3FE0
0F80
ENDCHAR

STARTCHAR ordfeminine
ENCODING 170
SWIDTH 440 0
DWIDTH 8 0
BBX 8 7 1 6
BITMAP
3A
7E
66
6E
3B
00
FE
ENDCHAR

STARTCHAR guillemotleft
ENCODING 171
SWIDTH 380 0
DWIDTH 7 0
BBX 7 7 0 2
BITMAP
36
6C
6C
D8
D8
6C
6C
ENDCHAR

STARTCHAR logicalnot
ENCODING 172
SWIDTH 620 0
DWIDTH 11 0
BBX 9 6 1 2
BITMAP
FF80
FF80
0180
0180
0180
0180
ENDCHAR

STARTCHAR hyphen
ENCODING 173
SWIDTH 280 0
DWIDTH 5 0
BBX 4 2 1 4
BITMAP
F0
F0
ENDCHAR

STARTCHAR registered
ENCODING 174
SWIDTH 780 0
DWIDTH 15 0
BBX 13 12 1 0
BITMAP
0F80
3FE0
7070
F738
CD98
CD18
CF18
CD98
ECB8
7070
3FE0
0F80
ENDCHAR

STARTCHAR macron
ENCODING 175
SWIDTH 480 0
DWIDTH 9 0
BBX 7 2 3 11
BITMAP
FE
FE
ENDCHAR

STARTCHAR degree
ENCODING 176
SWIDTH 400 0
DWIDTH 7 0
BBX 6 6 1 7
BITMAP
78
CC
84
84
CC
78
ENDCHAR

STARTCHAR plusminus
ENCODING 177
SWIDTH 600 0
DWIDTH 11 0
BBX 9 9 1 0
BITMAP
1C00
1C00
FF80
FF80
1C00
1C00
0000
FF80
FF80
ENDCHAR

STARTCHAR twosuperior
ENCODING 178
SWIDTH 680 0
DWIDTH 7 0
BBX 7 8 0 5
BITMAP
1C
36
66
0C
18
30
66
FC
ENDCHAR

STARTCHAR threesuperior
ENCODING 179
SWIDTH 680 0
DWIDTH 7 0
BBX 7 8 0 5
BITMAP
3C
66
46
1C
0C
CC
CC
78
ENDCHAR

STARTCHAR acute
ENCODING 180
SWIDTH 340 0
DWIDTH 6 0
BBX 4 4 3 9
BITMAP
30
70
E0
80
ENDCHAR

STARTCHAR mu
ENCODING 181
SWIDTH 680 0
DWIDTH 13 0
BBX 13 13 0 -4
BITMAP
1C70
7C70
1C70
38E0
38E0
38E0
73C0
7FF8
7CF0
E000
E000
E000
C000
ENDCHAR

STARTCHAR paragraph
ENCODING 182
SWIDTH 680 0
DWIDTH 13 0
BBX 11 16 1 -3
BITMAP
3FE0
7360
E360
E360
E660
E6C0
F6C0
7EC0
3CC0
0D80
0D80
0D80
0D80
0D80
1FC0
1FC0
ENDCHAR

STARTCHAR periodcentered
ENCODING 183
SWIDTH 340 0
DWIDTH 6 0
BBX 4 4 1 3
BITMAP
60
F0
F0
60
ENDCHAR

STARTCHAR cedilla
ENCODING 184
SWIDTH 360 0
DWIDTH 7 0
BBX 4 4 1 -4
BITMAP
40
60
B0
F0
ENDCHAR

STARTCHAR onesuperior
ENCODING 185
SWIDTH 680 0
DWIDTH 7 0
BBX 4 8 2 5
BITMAP
30
F0
30
30
60
60
60
F0
ENDCHAR

STARTCHAR ordmasculine
ENCODING 186
SWIDTH 440 0
DWIDTH 8 0
BBX 7 7 1 6
BITMAP
3C
76
66
6E
3C
00
FE
ENDCHAR

STARTCHAR guillemotright
ENCODING 187
SWIDTH 380 0
DWIDTH 7 0
BBX 7 7 0 2
BITMAP
6C
6C
36
36
6C
6C
D8
ENDCHAR

STARTCHAR onequarter
ENCODING 188
SWIDTH 120 0
DWIDTH 19 0
BBX 14 13 3 0
BITMAP
3030
F060
3060
30C0
6180
6188
6318
F638
0658
0C90
19FC
1830
3030
ENDCHAR

STARTCHAR onehalf
ENCODING 189
SWIDTH 120 0
DWIDTH 19 0
BBX 15 13 3 0
BITMAP
3030
F060
3060
30C0
6180
619C
6336
F666
060C
0C18
1830
1866
30FC
ENDCHAR

STARTCHAR threequarters
ENCODING 190
SWIDTH 120 0
DWIDTH 19 0
BBX 15 13 2 0
BITMAP
3C18
6630
4630
1C60
0CC0
CCC4
CD8C
7B1C
032C
0648
0CFE
0C18
1818
ENDCHAR

STARTCHAR questiondown
ENCODING 191
SWIDTH 620 0
DWIDTH 11 0
BBX 9 13 1 -4
BITMAP
0600
0F00
0F00
0600
0000
0C00
3800
7000
E180
E380
E380
7700
3C00
ENDCHAR

STARTCHAR Agrave
ENCODING 192
SWIDTH 720 0
DWIDTH 13 0
BBX 13 13 0 0
BITMAP
0300
0380
01C0
0040
0180
0380
07C0
0CC0
1FE0
3FE0
7070
F9F8
F9F8
ENDCHAR

STARTCHAR Aacute
ENCODING 193
SWIDTH 720 0
DWIDTH 13 0
BBX 13 13 0 0
BITMAP
00C0
01C0
0380
0200
0180
0380
07C0
0CC0
1FE0
3FE0
7070
F9F8
F9F8
ENDCHAR

STARTCHAR Acircumflex
ENCODING 194
SWIDTH 720 0
DWIDTH 13 0
BBX 13 13 0 0
BITMAP
0180
03C0
0660
0000
0180
0380
07C0
0CC0
1FE0
3FE0
7070
F9F8
F9F8
ENDCHAR

STARTCHAR Atilde
ENCODING 195
SWIDTH 720 0
DWIDTH 13 0
BBX 14 13 0 0
BITMAP
0390
07F0
04E0
0000
0180
0380
07C0
0CC0
1FE0
3FE0
7070
F9FC
F9FC
ENDCHAR

STARTCHAR Adieresis
ENCODING 196
SWIDTH 720 0
DWIDTH 13 0
BBX 14 13 -1 0
BITMAP
0330
0770
0660
0000
0180
0380
07C0
0CC0
1FE0
3FE0
7070
F9FC
F9FC
ENDCHAR

STARTCHAR Aring
ENCODING 197
SWIDTH 720 0
DWIDTH 13 0
BBX 14 14 0 0
BITMAP
0180
03C0
0240
03C0
0180
0180
0380
07C0
0CC0
1FE0
3FE0
7070
F9FC
F9FC
ENDCHAR

STARTCHAR AE
ENCODING 198
SWIDTH 1140 0
DWIDTH 21 0
BBX 21 13 0 0
BITMAP
001FF0
003FF8
007E38
00EC18
01DC00
039CC0
073FC0
0FFF80
1FF998
383838
703870
F87FF0
F87FE0
ENDCHAR

STARTCHAR Ccedilla
ENCODING 199
SWIDTH 700 0
DWIDTH 13 0
BBX 12 17 1 -4
BITMAP
0FD0
3FF0
7870
7030
F030
E000
E000
E000
E000
E060
70E0
7FC0
1F80
0800
0C00
1600
1E00
ENDCHAR

STARTCHAR Egrave
ENCODING 200
SWIDTH 720 0
DWIDTH 13 0
BBX 13 13 0 0
BITMAP
0600
0700
0380
0080
1FF0
1FF8
0C18
1F00
1F00
3818
3878
FFF0
FFE0
ENDCHAR

STARTCHAR Eacute
ENCODING 201
SWIDTH 720 0
DWIDTH 13 0
BBX 13 13 0 0
BITMAP
00C0
01C0
0380
0200
1FF0
1FF8
0C18
1F00
1F00
3818
3878
FFF0
FFE0
ENDCHAR

STARTCHAR Ecircumflex
ENCODING 202
SWIDTH 720 0
DWIDTH 13 0
BBX 13 13 0 0
BITMAP
0180
03C0
0660
0000
1FF0
1FF8
0C18
1F00
1F00
3818
3878
FFF0
FFE0
ENDCHAR

STARTCHAR Edieresis
ENCODING 203
SWIDTH 720 0
DWIDTH 13 0
BBX 13 13 0 0
BITMAP
0330
0770
0660
0000
1FF0
1FF8
0C18
1F00
1F00
3818
3878
FFF0
FFE0
ENDCHAR

STARTCHAR Igrave
ENCODING 204
SWIDTH 380 0
DWIDTH 7 0
BBX 8 13 0 0
BITMAP
0C
0E
07
01
1F
1F
0E
1C
1C
38
38
FC
FC
ENDCHAR

STARTCHAR Iacute
ENCODING 205
SWIDTH 380 0
DWIDTH 7 0
BBX 8 13 0 0
BITMAP
03
07
0E
08
1F
1F
0E
1C
1C
38
38
FC
FC
ENDCHAR

STARTCHAR Icircumflex
ENCODING 206
SWIDTH 380 0
DWIDTH 7 0
BBX 9 13 0 0
BITMAP
0600
0F00
1980
0000
1F00
1F00
0E00
1C00
1C00
3800
3800
FC00
FC00
ENDCHAR

STARTCHAR Idieresis
ENCODING 207
SWIDTH 380 0
DWIDTH 7 0
BBX 10 13 0 0
BITMAP
0CC0
1DC0
1980
0000
1F00
1F00
0E00
1C00
1C00
3800
3800
FC00
FC00
ENDCHAR

STARTCHAR Eth
ENCODING 208
SWIDTH 760 0
DWIDTH 14 0
BBX 14 13 0 0
BITMAP
1FE0
1FF8
0E38
0E1C
1C1C
1C1C
7F9C
1C1C
3838
3838
3878
FFF0
FFC0
ENDCHAR

STARTCHAR Ntilde
ENCODING 209
SWIDTH 740 0
DWIDTH 14 0
BBX 15 13 0 0
BITMAP
01C8
03F8
0270
0000
3C3E
3C3E
1E1C
1F18
3398
31F0
30F0
F870
F830
ENDCHAR

STARTCHAR Ograve
ENCODING 210
SWIDTH 760 0
DWIDTH 14 0
BBX 13 13 1 0
BITMAP
0600
0700
0380
0080
0FC0
3FF0
7870
7038
E038
E078
70F0
7FE0
1F80
ENDCHAR

STARTCHAR Oacute
ENCODING 211
SWIDTH 760 0
DWIDTH 14 0
BBX 13 13 1 0
BITMAP
0180
0380
0700
0400
0FC0
3FF0
7870
7038
E038
E078
70F0
7FE0
1F80
ENDCHAR

STARTCHAR Ocircumflex
ENCODING 212
SWIDTH 760 0
DWIDTH 14 0
BBX 13 13 1 0
BITMAP
0300
0780
0CC0
0000
0FC0
3FF0
7870
7038
E038
E078
70F0
7FE0
1F80
ENDCHAR

STARTCHAR Otilde
ENCODING 213
SWIDTH 760 0
DWIDTH 14 0
BBX 13 13 1 0
BITMAP
0720
0FE0
09C0
0000
0FC0
3FF0
7870
7038
E038
E078
70F0
7FE0
1F80
ENDCHAR

STARTCHAR Odieresis
ENCODING 214
SWIDTH 760 0
DWIDTH 14 0
BBX 13 13 1 0
BITMAP
0660
0EE0
0CC0
0000
0FC0
3FF0
7870
7038
E038
E078
70F0
7FE0
1F80
ENDCHAR

STARTCHAR multiply
ENCODING 215
SWIDTH 600 0
DWIDTH 11 0
BBX 9 9 1 0
BITMAP
4100
E380
7700
3E00
1C00
3E00
7700
E380
4100
ENDCHAR

STARTCHAR Oslash
ENCODING 216
SWIDTH 760 0
DWIDTH 14 0
BBX 13 13 1 0
BITMAP
0FD8
3FF8
7870
7078
F1F8
E3B8
E738
EE38
FC78
F870
70F0
FFE0
DF80
ENDCHAR

STARTCHAR Ugrave
ENCODING 217
SWIDTH 740 0
DWIDTH 14 0
BBX 13 13 2 0
BITMAP
0600
0700
0380
0080
7E78
7E78
3830
7060
7060
E0C0
E1C0
7F80
3F00
ENDCHAR

STARTCHAR Uacute
ENCODING 218
SWIDTH 740 0
DWIDTH 14 0
BBX 13 13 2 0
BITMAP
00C0
01C0
0380
0200
7E78
7E78
3830
7060
7060
E0C0
E1C0
7F80
3F00
ENDCHAR

STARTCHAR Ucircumflex
ENCODING 219
SWIDTH 740 0
DWIDTH 14 0
BBX 13 13 2 0
BITMAP
0180
03C0
0660
0000
7E78
7E78
3830
7060
7060
E0C0
E1C0
7F80
3F00
ENDCHAR

STARTCHAR Udieresis
ENCODING 220
SWIDTH 740 0
DWIDTH 14 0
BBX 13 13 2 0
BITMAP
0660
0EE0
0CC0
0000
7E78
7E78
3830
7060
7060
E0C0
E1C0
7F80
3F00
ENDCHAR

STARTCHAR Yacute
ENCODING 221
SWIDTH 660 0
DWIDTH 12 0
BBX 13 13 1 0
BITMAP
00C0
01C0
0380
0200
FCF8
FCF8
7060
38C0
1D80
0F00
0E00
3F00
3F00
ENDCHAR

STARTCHAR Thorn
ENCODING 222
SWIDTH 640 0
DWIDTH 12 0
BBX 12 13 0 0
BITMAP
1F80
1F80
0E00
0FC0
1FF0
1C70
1C70
1CE0
3FC0
3F00
3800
FE00
FE00
ENDCHAR

STARTCHAR germandbls
ENCODING 223
SWIDTH 660 0
DWIDTH 12 0
BBX 15 17 -3 -4
BITMAP
00F8
01FC
03CE
0F8E
0F9C
03B8
039C
030E
070E
070E
071E
077C
0778
0E00
CE00
FC00
7800
ENDCHAR

STARTCHAR agrave
ENCODING 224
SWIDTH 680 0
DWIDTH 13 0
BBX 12 13 1 0
BITMAP
0C00
0E00
0700
0100
1F60
3FE0
71E0
E1C0
E1C0
E1C0
E3C0
7FF0
3EE0
ENDCHAR

STARTCHAR aacute
ENCODING 225
SWIDTH 680 0
DWIDTH 13 0
BBX 12 13 1 0
BITMAP
0180
0380
0700
0400
1F60
3FE0
71E0
E1C0
E1C0
E1C0
E3C0
7FF0
3EE0
ENDCHAR

STARTCHAR acircumflex
ENCODING 226
SWIDTH 680 0
DWIDTH 13 0
BBX 12 13 1 0
BITMAP
0300
0780
0CC0
0000
1F60
3FE0
71E0
E1C0
E1C0
E1C0
E3C0
7FF0
3EE0
ENDCHAR

STARTCHAR atilde
ENCODING 227
SWIDTH 680 0
DWIDTH 13 0
BBX 12 13 1 0
BITMAP
0E40
1FC0
1380
0000
1F60
3FE0
71E0
E1C0
E1C0
E1C0
E3C0
7FF0
3EE0
ENDCHAR

STARTCHAR adieresis
ENCODING 228
SWIDTH 680 0
DWIDTH 13 0
BBX 12 13 1 0
BITMAP
0CC0
1DC0
1980
0000
1F60
3FE0
71E0
E1C0
E1C0
E1C0
E3C0
7FF0
3EE0
ENDCHAR

STARTCHAR aring
ENCODING 229
SWIDTH 680 0
DWIDTH 13 0
BBX 12 14 1 0
BITMAP
0600
0F00
0900
0F00
0600
1E60
3FE0
71E0
E1C0
E1C0
E1C0
E3C0
7FF0
3EE0
ENDCHAR

STARTCHAR ae
ENCODING 230
SWIDTH 880 0
DWIDTH 17 0
BBX 16 9 1 0
BITMAP
3F3E
77FF
03C7
3FCE
73F8
E380
E7C3
FFFF
7CFC
ENDCHAR

STARTCHAR ccedilla
ENCODING 231
SWIDTH 560 0
DWIDTH 10 0
BBX 9 13 1 -4
BITMAP
1F00
3F80
7180
E000
E000
E080
E380
7F00
3E00
1000
1800
2C00
3C00
ENDCHAR

STARTCHAR egrave
ENCODING 232
SWIDTH 560 0
DWIDTH 10 0
BBX 9 13 1 0
BITMAP
1800
1C00
0E00
0200
1F00
3F80
7380
E780
FE00
E000
E180
7F80
3E00
ENDCHAR

STARTCHAR eacute
ENCODING 233
SWIDTH 560 0
DWIDTH 10 0
BBX 9 13 1 0
BITMAP
0300
0700
0E00
0800
1F00
3F80
7380
E780
FE00
E000
E180
7F80
3E00
ENDCHAR

STARTCHAR ecircumflex
ENCODING 234
SWIDTH 560 0
DWIDTH 10 0
BBX 9 13 1 0
BITMAP
0C00
1E00
3300
0000
1F00
3F80
7380
E780
FE00
E000
E180
7F80
3E00
ENDCHAR

STARTCHAR edieresis
ENCODING 235
SWIDTH 560 0
DWIDTH 10 0
BBX 9 13 1 0
BITMAP
1980
3B80
3300
0000
1F00
3F80
7380
E780
FE00
E000
E180
7F80
3E00
ENDCHAR

STARTCHAR igrave
ENCODING 236
SWIDTH 380 0
DWIDTH 7 0
BBX 6 13 1 0
BITMAP
60
70
38
08
38
F8
38
70
70
70
E0
FC
78
ENDCHAR

STARTCHAR iacute
ENCODING 237
SWIDTH 380 0
DWIDTH 7 0
BBX 6 13 1 0
BITMAP
0C
1C
38
20
38
F8
38
70
70
70
E0
FC
78
ENDCHAR

STARTCHAR icircumflex
ENCODING 238
SWIDTH 380 0
DWIDTH 7 0
BBX 7 13 1 0
BITMAP
18
3C
66
00
38
F8
38
70
70
70
E0
FC
78
ENDCHAR

STARTCHAR idieresis
ENCODING 239
SWIDTH 380 0
DWIDTH 7 0
BBX 7 13 1 0
BITMAP
66
EE
CC
00
38
F8
38
70
70
70
E0
FC
78
ENDCHAR

STARTCHAR eth
ENCODING 240
SWIDTH 600 0
DWIDTH 11 0
BBX 10 13 1 0
BITMAP
1D80
0E00
3700
0380
1F80
3FC0
71C0
E1C0
E1C0
E1C0
E380
7F00
3E00
ENDCHAR

STARTCHAR ntilde
ENCODING 241
SWIDTH 680 0
DWIDTH 13 0
BBX 12 13 1 0
BITMAP
0E40
1FC0
1380
0000
3BC0
FFE0
38E0
70E0
71E0
71C0
E1C0
E1F0
E0E0
ENDCHAR

STARTCHAR ograve
ENCODING 242
SWIDTH 600 0
DWIDTH 11 0
BBX 10 13 1 0
BITMAP
1800
1C00
0E00
0200
1F00
3F80
71C0
E1C0
E1C0
E1C0
E380
7F00
3E00
ENDCHAR

STARTCHAR oacute
ENCODING 243
SWIDTH 600 0
DWIDTH 11 0
BBX 10 13 1 0
BITMAP
0300
0700
0E00
0800
1F00
3F80
71C0
E1C0
E1C0
E1C0
E380
7F00
3E00
ENDCHAR

STARTCHAR ocircumflex
ENCODING 244
SWIDTH 600 0
DWIDTH 11 0
BBX 10 13 1 0
BITMAP
0600
0F00
1980
0000
1F00
3F80
71C0
E1C0
E1C0
E1C0
E380
7F00
3E00
ENDCHAR

STARTCHAR otilde
ENCODING 245
SWIDTH 600 0
DWIDTH 11 0
BBX 10 13 1 0
BITMAP
1C80
3F80
2700
0000
1F00
3F80
71C0
E1C0
E1C0
E1C0
E380
7F00
3E00
ENDCHAR

STARTCHAR odieresis
ENCODING 246
SWIDTH 600 0
DWIDTH 11 0
BBX 10 13 1 0
BITMAP
1980
3B80
3300
0000
1F00
3F80
71C0
E1C0
E1C0
E1C0
E380
7F00
3E00
ENDCHAR

STARTCHAR divide
ENCODING 247
SWIDTH 600 0
DWIDTH 11 0
BBX 9 8 1 1
BITMAP
1C00
1C00
0000
FF80
FF80
0000
1C00
1C00
ENDCHAR

STARTCHAR oslash
ENCODING 248
SWIDTH 600 0
DWIDTH 11 0
BBX 10 11 1 -1
BITMAP
0040
1FC0
3F80
73C0
E7C0
EDC0
F9C0
F380
7F00
FE00
8000
ENDCHAR

STARTCHAR ugrave
ENCODING 249
SWIDTH 680 0
DWIDTH 13 0
BBX 12 13 1 0
BITMAP
0C00
0E00
0700
0100
38E0
F8E0
38E0
71C0
71C0
71C0
E780
FFF0
79E0
ENDCHAR

STARTCHAR uacute
ENCODING 250
SWIDTH 680 0
DWIDTH 13 0
BBX 12 13 1 0
BITMAP
0180
0380
0700
0400
38E0
F8E0
38E0
71C0
71C0
71C0
E780
FFF0
79E0
ENDCHAR

STARTCHAR ucircumflex
ENCODING 251
SWIDTH 680 0
DWIDTH 13 0
BBX 12 13 1 0
BITMAP
0300
0780
0CC0
0000
38E0
F8E0
38E0
71C0
71C0
71C0
E780
FFF0
79E0
ENDCHAR

STARTCHAR udieresis
ENCODING 252
SWIDTH 680 0
DWIDTH 13 0
BBX 12 13 1 0
BITMAP
0CC0
1DC0
1980
0000
38E0
F8E0
38E0
71C0
71C0
71C0
E780
FFF0
79E0
ENDCHAR

STARTCHAR yacute
ENCODING 253
SWIDTH 600 0
DWIDTH 11 0
BBX 11 17 1 -4
BITMAP
0180
0380
0700
0400
38E0
F8E0
38E0
71C0
71C0
71C0
E780
FF80
7B80
0380
E700
FF00
7E00
ENDCHAR

STARTCHAR thorn
ENCODING 254
SWIDTH 660 0
DWIDTH 12 0
BBX 13 17 -1 -4
BITMAP
0700
1F00
0E00
0E00
0EE0
0FF0
1E38
1C38
1C38
1C38
3C70
3FE0
3BC0
7000
7000
F800
F800
ENDCHAR

STARTCHAR ydieresis
ENCODING 255
SWIDTH 600 0
DWIDTH 11 0
BBX 11 17 1 -4
BITMAP
0CC0
1DC0
1980
0000
38E0
F8E0
38E0
71C0
71C0
71C0
E780
FF80
7B80
0380
E700
FF00
7E00
ENDCHAR
ENDFONT
